HIERARCHY
ROOT Hips
{
	OFFSET 0.000000 0.000000 0.000000
	CHANNELS 6 Xposition Yposition Zposition Xrotation Yrotation Zrotation
	JOINT LeftUpLeg_virtual
	{
		OFFSET 0.000000 0.000000 0.000000
		CHANNELS 3 Xrotation Yrotation Zrotation
		JOINT LeftUpLeg
		{
			OFFSET 10.205400 -3.823500 0.155100
			CHANNELS 3 Xrotation Yrotation Zrotation
			JOINT LeftLeg
			{
				OFFSET 0.708757 -12.982077 0.567790
				CHANNELS 3 Xrotation Yrotation Zrotation
				JOINT LeftFoot
				{
					OFFSET -0.708756 -10.717838 -2.184338
					CHANNELS 3 Xrotation Yrotation Zrotation
					JOINT LeftToeBase
					{
						OFFSET 0.108149 -7.191104 7.560241
						CHANNELS 3 Xrotation Yrotation Zrotation
						JOINT LeftToe_End
						{
							OFFSET 0.070230 0.081724 4.490308
							CHANNELS 3 Xrotation Yrotation Zrotation
							End Site
							{
								OFFSET 0 0 0
							}
						}
					}
				}
			}
		}
	}
	JOINT RightUpLeg_virtual
	{
		OFFSET 0.000000 0.000000 0.000000
		CHANNELS 3 Xrotation Yrotation Zrotation
		JOINT RightUpLeg
		{
			OFFSET -10.205400 -3.823500 0.005500
			CHANNELS 3 Xrotation Yrotation Zrotation
			JOINT RightLeg
			{
				OFFSET -0.708756 -12.982134 0.610632
				CHANNELS 3 Xrotation Yrotation Zrotation
				JOINT RightFoot
				{
					OFFSET 0.708754 -10.717769 -1.945823
					CHANNELS 3 Xrotation Yrotation Zrotation
					JOINT RightToeBase
					{
						OFFSET -0.108140 -7.191069 7.372968
						CHANNELS 3 Xrotation Yrotation Zrotation
						JOINT RightToe_End
						{
							OFFSET -0.070227 0.081735 4.479403
							CHANNELS 3 Xrotation Yrotation Zrotation
							End Site
							{
								OFFSET 0 0 0
							}
						}
					}
				}
			}
		}
	}
	JOINT Spine_virtual
	{
		OFFSET 0.000000 0.000000 0.000000
		CHANNELS 3 Xrotation Yrotation Zrotation
		JOINT Spine
		{
			OFFSET 0.000000 6.876099 0.125700
			CHANNELS 3 Xrotation Yrotation Zrotation
			JOINT Spine1
			{
				OFFSET 0.000000 5.730043 0.104720
				CHANNELS 3 Xrotation Yrotation Zrotation
				JOINT Spine1_split
				{
					OFFSET 0.000000 5.730043 0.104720
					CHANNELS 3 Xrotation Yrotation Zrotation
					JOINT Spine2
					{
						OFFSET 0.000000 5.730043 0.104720
						CHANNELS 3 Xrotation Yrotation Zrotation
						JOINT Neck_virtual
						{
							OFFSET 0.000000 0.000000 0.000000
							CHANNELS 3 Xrotation Yrotation Zrotation
							JOINT Neck
							{
								OFFSET 0.000000 10.314075 0.188496
								CHANNELS 3 Xrotation Yrotation Zrotation
								JOINT Head
								{
									OFFSET 0.000000 7.643700 -2.377400
									CHANNELS 3 Xrotation Yrotation Zrotation
									JOINT HeadTop_End
									{
										OFFSET 0.000000 43.788605 -13.619600
										CHANNELS 3 Xrotation Yrotation Zrotation
										End Site
										{
											OFFSET 0 0 0
										}
									}
								}
							}
						}
						JOINT LeftShoulder_virtual
						{
							OFFSET 0.000000 0.000000 0.000000
							CHANNELS 3 Xrotation Yrotation Zrotation
							JOINT LeftShoulder
							{
								OFFSET 2.196100 4.412489 0.087492
								CHANNELS 3 Xrotation Yrotation Zrotation
								JOINT LeftShoulder_split
								{
									OFFSET 2.196100 4.412489 0.087492
									CHANNELS 3 Xrotation Yrotation Zrotation
									JOINT LeftArm
									{
										OFFSET 8.771219 -2.981674 -0.026999
										CHANNELS 3 Xrotation Yrotation Zrotation
										JOINT LeftForeArm
										{
											OFFSET 8.512804 0.000000 -0.000000
											CHANNELS 3 Xrotation Yrotation Zrotation
											JOINT LeftHand
											{
												OFFSET 18.484802 0.000000 -0.000000
												CHANNELS 3 Xrotation Yrotation Zrotation
												End Site
												{
													OFFSET 0 0 0
												}
											}
										}
									}
								}
							}
						}
						JOINT RightShoulder_virtual
						{
							OFFSET 0.000000 0.000000 0.000000
							CHANNELS 3 Xrotation Yrotation Zrotation
							JOINT RightShoulder
							{
								OFFSET -2.196100 4.412496 0.070690
								CHANNELS 3 Xrotation Yrotation Zrotation
								JOINT RightShoulder_split
								{
									OFFSET -2.196100 4.412496 0.070690
									CHANNELS 3 Xrotation Yrotation Zrotation
									JOINT RightArm
									{
										OFFSET -8.771282 -2.981682 -0.094208
										CHANNELS 3 Xrotation Yrotation Zrotation
										JOINT RightForeArm
										{
											OFFSET -8.494598 0.000000 0.000000
											CHANNELS 3 Xrotation Yrotation Zrotation
											JOINT RightHand
											{
												OFFSET -18.483803 0.000000 0.000001
												CHANNELS 3 Xrotation Yrotation Zrotation
												End Site
												{
													OFFSET 0 0 0
												}
											}
										}
									}
								}
							}
						}
					}
				}
			}
		}
	}
}
MOTION
Frames: 11
Frame Time: 0.03333333
1.982154 34.944107 -1.498329 0.000000 0.000000 0.000000 -2.017801 11.248757 -1.270259 -32.653543 -10.979789 2.784106 49.456136 5.565162 -6.032790 30.916035 -3.516929 4.276104 -24.949762 2.229829 -2.688892 0.000000 0.000000 0.000000 -3.433694 11.623228 -0.800997 -9.083890 -8.088257 7.682347 32.561619 2.100543 0.812956 -7.516447 -14.293527 -5.276925 -15.800816 2.589959 -7.883404 0.000000 0.000000 0.000000 -4.533159 14.279867 -0.477531 9.594439 -1.367732 -0.408929 0.779828 -0.272261 1.311452 0.098529 -0.192686 0.041090 0.000000 0.000000 0.000000 -0.099583 1.978933 2.385856 -12.549552 9.124783 11.420026 5.744168 -22.919994 -29.957070 0.000000 0.000000 0.000000 0.833474 0.393741 2.164957 -1.512844 1.345616 -8.077754 0.323205 -3.021050 -2.378765 2.465243 -6.932082 -65.638603 33.076400 -27.001507 3.540748 0.000000 0.000000 0.000000 1.318203 0.371931 1.982460 -4.114338 1.678365 15.255514 -22.854767 -6.075368 1.622161 12.576783 9.484658 55.390649 -1.082578 28.118581 26.421234 0.000000 0.000000 0.000000 
1.974891 35.142883 -0.483492 0.000000 0.000000 0.000000 -1.970770 10.170783 -1.206362 -32.665284 -9.618183 0.733413 41.847712 8.409598 -4.987702 24.497732 -2.227695 7.765619 -21.664754 2.611695 -3.474694 0.000000 0.000000 0.000000 -2.750244 9.642234 -0.760668 -8.351625 -8.213894 7.339720 32.297383 2.355297 1.254975 -6.010737 -13.815453 -6.507522 -17.178097 2.547263 -7.290701 0.000000 0.000000 0.000000 -3.338107 13.041146 -0.979743 8.942556 -0.960140 -0.198758 0.724127 -0.279684 1.243449 0.009284 -0.248222 0.058305 0.000000 0.000000 0.000000 -0.095768 1.997604 2.235729 -12.689544 8.878994 11.347477 5.920667 -23.276245 -30.042187 0.000000 0.000000 0.000000 0.866542 0.402233 2.210579 -1.519005 1.646085 -8.114438 -0.460107 -3.349982 -2.704491 3.169041 -6.293270 -65.408747 33.101224 -26.800798 3.733892 0.000000 0.000000 0.000000 1.208193 0.382406 1.870900 -4.068814 1.843187 14.362944 -22.867644 -5.688540 0.952592 11.837304 10.110097 55.716530 -2.261090 30.949804 26.748986 0.000000 0.000000 0.000000 
1.994339 35.479362 0.760087 0.000000 0.000000 0.000000 -1.875628 8.237800 -0.894285 -33.423971 -6.145182 -1.297076 32.413206 10.544628 -2.054939 21.285911 -1.705503 7.318654 -13.945100 2.422893 -3.348141 0.000000 0.000000 0.000000 -2.257484 6.779790 -0.539619 -6.640665 -8.900270 6.404322 31.162472 3.617326 2.062700 -4.329711 -11.646985 -6.991750 -19.824014 2.852095 -6.779343 0.000000 0.000000 0.000000 -2.278836 11.155683 -1.303609 8.532265 -0.206274 0.179508 0.738311 -0.232351 1.148095 -0.035264 -0.430155 0.096663 0.000000 0.000000 0.000000 -0.081589 2.046834 2.155960 -12.917145 8.737716 11.134279 5.638765 -23.553520 -30.272949 0.000000 0.000000 0.000000 0.857265 0.414746 2.089061 -1.441567 2.240912 -8.626332 -1.110175 -4.057689 -3.192188 4.053699 -4.628323 -65.377908 33.954028 -26.606170 4.499113 0.000000 0.000000 0.000000 1.017211 0.393625 1.649002 -3.968194 2.492730 12.839734 -22.504486 -5.818564 0.841530 11.659481 11.396762 55.970668 -4.277838 33.704084 27.383449 0.000000 0.000000 0.000000 
2.051396 35.792160 2.012631 0.000000 0.000000 0.000000 -1.700907 5.839543 -0.357237 -35.184685 -1.470104 -3.086733 23.870741 10.814891 1.982589 23.683532 -2.710754 3.120381 -8.238374 1.744539 -1.122125 0.000000 0.000000 0.000000 -1.750239 3.764735 -0.205945 -4.108394 -10.007867 5.202523 29.085695 5.553944 3.142102 -4.381568 -8.233425 -7.592026 -21.757008 3.419780 -6.522113 0.000000 0.000000 0.000000 -1.542006 8.949724 -1.419517 8.405390 0.651652 0.562744 0.911336 -0.162566 1.118517 0.018056 -0.754240 0.137906 0.000000 0.000000 0.000000 -0.088227 2.079869 2.238771 -13.105106 8.732989 10.808838 4.839989 -23.842307 -30.501719 0.000000 0.000000 0.000000 0.762576 0.418738 1.906062 -1.285697 3.045945 -9.359704 -1.305976 -4.790156 -3.570003 4.936657 -2.035969 -65.611699 35.495755 -26.566926 5.692966 0.000000 0.000000 0.000000 0.836922 0.402853 1.454787 -3.872149 3.555953 11.041267 -22.004264 -6.413382 1.137863 11.819633 12.742857 56.078906 -6.610806 35.116550 28.011224 0.000000 0.000000 0.000000 
2.142035 35.926785 3.294488 0.000000 0.000000 0.000000 -1.505999 3.263392 0.242736 -37.704461 4.496156 -4.429432 17.467481 9.879233 6.098853 28.768887 -5.407445 -1.267486 -8.312820 0.829279 2.914753 0.000000 0.000000 0.000000 -1.109663 1.149759 0.154264 -0.894744 -11.624876 4.099030 26.577060 7.591926 4.156422 -7.184487 -4.599999 -8.864161 -21.224914 4.130085 -6.703392 0.000000 0.000000 0.000000 -0.920416 6.804823 -1.428835 8.448045 1.424936 0.793763 1.267604 -0.074654 1.221708 0.069690 -1.032827 0.162180 0.000000 0.000000 0.000000 -0.118730 2.082249 2.502053 -13.205269 8.784477 10.422344 3.742384 -24.240169 -30.574614 0.000000 0.000000 0.000000 0.583208 0.437791 1.789629 -1.076093 3.814580 -10.120656 -1.026429 -5.363789 -3.401028 5.720601 1.242809 -66.095194 37.433043 -26.657098 7.082671 0.000000 0.000000 0.000000 0.701583 0.424911 1.398071 -3.768664 4.895291 9.392061 -21.575856 -7.333329 1.504425 11.848871 13.623969 55.934478 -8.811142 34.704526 28.470689 0.000000 0.000000 0.000000 
2.312800 35.765884 4.605554 0.000000 0.000000 0.000000 -1.339287 0.822669 0.735374 -39.946986 11.517899 -5.351908 13.775514 9.142043 9.765898 32.794265 -8.354202 -2.617928 -11.507760 -0.237621 6.576350 0.000000 0.000000 0.000000 -0.547470 -0.590727 0.398557 2.544397 -13.734926 3.221379 24.487367 9.345622 5.068267 -12.105949 -1.830904 -10.136528 -18.258564 4.854359 -7.455525 0.000000 0.000000 0.000000 -0.525418 4.997810 -1.438053 8.483704 1.998992 0.745043 1.771227 0.045023 1.442729 0.142214 -1.119766 0.162796 0.000000 0.000000 0.000000 -0.156244 2.070345 2.851759 -13.252307 8.751200 10.016758 2.722871 -24.921140 -30.244590 0.000000 0.000000 0.000000 0.361475 0.508739 1.797387 -0.842906 4.267972 -10.727401 -0.447743 -5.528833 -2.912072 6.411852 4.750710 -66.769969 39.277559 -26.546715 8.310670 0.000000 0.000000 0.000000 0.644793 0.492239 1.529376 -3.659151 6.310426 8.212514 -21.188582 -8.381932 1.780111 11.338952 13.731353 55.693123 -10.611413 32.874698 28.769491 0.000000 0.000000 0.000000 
2.498771 35.335873 5.984343 0.000000 0.000000 0.000000 -1.261906 -1.384954 0.986235 -41.871146 18.270073 -6.129752 13.840246 9.101341 12.880781 34.886475 -10.523593 -1.481119 -12.571633 -0.659022 7.963962 0.000000 0.000000 0.000000 -0.174504 -1.438246 0.511745 5.836108 -15.977397 2.736584 23.415436 10.714356 5.874773 -17.938752 -0.631335 -10.204002 -15.570007 5.539675 -8.701131 0.000000 0.000000 0.000000 -0.508447 3.677939 -1.514377 8.265249 2.362809 0.439417 2.319992 0.200523 1.707921 0.222829 -0.907801 0.133159 0.000000 0.000000 0.000000 -0.158695 2.077235 3.162171 -13.184330 8.597329 9.642902 2.428396 -25.834350 -29.430052 0.000000 0.000000 0.000000 0.170733 0.653574 1.905640 -0.631547 4.271109 -11.089910 0.003152 -5.129449 -2.357693 7.209444 8.015454 -67.617568 40.673572 -26.026176 9.106523 0.000000 0.000000 0.000000 0.703991 0.618476 1.765407 -3.600631 7.486653 7.612135 -20.836534 -9.017795 1.901514 10.362927 13.194835 55.449405 -11.851745 30.518474 28.961826 0.000000 0.000000 0.000000 
2.695323 34.714371 7.380755 0.000000 0.000000 0.000000 -1.226517 -2.938465 0.936794 -43.780594 23.919572 -6.516546 17.662355 9.361954 14.942938 35.237185 -12.132638 1.472719 -11.268909 -0.320309 7.713415 0.000000 0.000000 0.000000 -0.189633 -1.617419 0.443633 8.815747 -17.611233 2.826331 23.551669 11.624827 6.127443 -23.813212 -1.333498 -9.240219 -14.656553 6.154423 -10.172949 0.000000 0.000000 0.000000 -0.860097 3.109862 -1.581990 7.641102 2.517247 -0.009011 2.835285 0.401296 1.895485 0.218711 -0.588571 0.073281 0.000000 0.000000 0.000000 -0.095481 2.157398 3.299197 -12.955715 8.310751 9.346534 3.480703 -26.811791 -28.074649 0.000000 0.000000 0.000000 0.047602 0.867438 2.018169 -0.497166 3.716802 -11.186539 0.306632 -4.521306 -1.880620 8.137948 10.668809 -68.591362 41.389632 -25.048226 9.305722 0.000000 0.000000 0.000000 0.856546 0.814730 1.982826 -3.520665 8.172958 7.549329 -20.663472 -9.044519 1.746258 9.333632 12.367073 55.349237 -12.418156 28.244400 29.091791 0.000000 0.000000 0.000000 
2.908242 34.035854 8.835447 0.000000 0.000000 0.000000 -1.244886 -4.027156 0.755095 -44.747073 28.077369 -6.648101 23.423541 9.493350 15.409043 34.280911 -13.728311 6.099433 -10.463711 0.104923 7.271256 0.000000 0.000000 0.000000 -0.666705 -1.584648 0.323624 11.346777 -17.887383 3.382471 24.990819 11.768750 5.942348 -28.326847 -3.757457 -8.933132 -14.409944 6.667815 -11.464246 0.000000 0.000000 0.000000 -1.723646 3.289307 -1.451209 6.594630 2.396205 -0.561294 3.224969 0.589312 1.953543 0.207844 -0.404095 0.027549 0.000000 0.000000 0.000000 0.050945 2.317547 3.215989 -12.579514 7.925143 9.143891 6.006754 -27.736678 -26.274474 0.000000 0.000000 0.000000 0.017536 1.088996 2.065346 -0.470230 2.750215 -11.118383 0.323965 -3.943145 -1.589276 9.117125 12.792663 -69.697374 41.355026 -23.770581 8.944205 0.000000 0.000000 0.000000 1.071987 1.036880 2.125927 -3.350050 8.280333 7.826420 -20.842594 -8.602139 1.322446 8.698041 11.432091 55.531087 -12.095387 26.010759 28.948316 0.000000 0.000000 0.000000 
3.068353 33.444958 10.240587 0.000000 0.000000 0.000000 -1.430463 -4.469951 0.631875 -44.299903 30.419299 -6.864805 29.180183 9.074978 14.630182 32.792793 -15.410514 11.440429 -11.639775 0.371293 7.126469 0.000000 0.000000 0.000000 -1.465562 -1.100148 0.347251 13.099032 -16.489496 3.886325 27.119215 11.335727 5.466548 -30.039712 -7.019569 -9.295201 -14.877229 7.171412 -12.338966 0.000000 0.000000 0.000000 -2.804010 4.007313 -1.065534 5.211708 2.068484 -1.164650 3.447153 0.701732 1.907682 0.144868 -0.312531 0.020540 0.000000 0.000000 0.000000 0.265407 2.494364 3.019235 -12.011137 7.590540 9.008093 9.629242 -28.226996 -24.409921 0.000000 0.000000 0.000000 0.053644 1.246140 2.056841 -0.560167 1.704047 -11.011347 0.230951 -3.551044 -1.416546 10.020911 14.645561 -70.871231 40.732584 -22.612714 8.258759 0.000000 0.000000 0.000000 1.280416 1.208283 2.214438 -3.075171 7.913606 8.145335 -21.136314 -8.012021 0.870511 8.844514 10.415411 55.798790 -10.942178 23.669177 28.341679 0.000000 0.000000 0.000000 
3.158763 32.981285 11.560103 0.000000 0.000000 0.000000 -1.926583 -4.043071 0.754207 -42.718810 30.813210 -7.451965 33.746168 7.805403 13.011340 31.122297 -17.318462 15.975392 -14.977259 0.525864 7.225528 0.000000 0.000000 0.000000 -2.379630 0.112996 0.556747 13.426719 -13.474788 3.610781 29.963627 11.110540 4.841747 -26.906536 -10.574932 -8.184768 -17.997000 7.977683 -12.825222 0.000000 0.000000 0.000000 -4.029591 5.162994 -0.461154 3.720912 1.559039 -1.733532 3.510132 0.701496 1.827784 0.027668 -0.340993 0.065451 0.000000 0.000000 0.000000 0.525586 2.593197 2.852785 -11.369274 7.373940 8.868207 13.352571 -28.056180 -22.969481 0.000000 0.000000 0.000000 0.107014 1.280166 2.045822 -0.725033 0.789579 -10.938192 0.224771 -3.378621 -1.295360 10.745758 16.431611 -71.982667 39.620152 -21.830485 7.476394 0.000000 0.000000 0.000000 1.397570 1.261256 2.326584 -2.726470 7.257126 8.213690 -21.381975 -7.342452 0.433829 9.731740 9.328531 56.114860 -9.207874 21.299542 27.184334 0.000000 0.000000 0.000000 
